<?xml version="1.0" encoding="utf-8" standalone="no"?>
<!DOCTYPE svg PUBLIC "-//W3C//DTD SVG 1.1//EN"
  "http://www.w3.org/Graphics/SVG/1.1/DTD/svg11.dtd">
<svg xmlns:xlink="http://www.w3.org/1999/xlink" width="1066.329375pt" height="568.637812pt" viewBox="0 0 1066.329375 568.637812" xmlns="http://www.w3.org/2000/svg" version="1.1">
 <metadata>
  <rdf:RDF xmlns:dc="http://purl.org/dc/elements/1.1/" xmlns:cc="http://creativecommons.org/ns#" xmlns:rdf="http://www.w3.org/1999/02/22-rdf-syntax-ns#">
   <cc:Work>
    <dc:type rdf:resource="http://purl.org/dc/dcmitype/StillImage"/>
    <dc:date>2026-03-01T18:35:45.879776</dc:date>
    <dc:format>image/svg+xml</dc:format>
    <dc:creator>
     <cc:Agent>
      <dc:title>Matplotlib v3.10.8, https://matplotlib.org/</dc:title>
     </cc:Agent>
    </dc:creator>
   </cc:Work>
  </rdf:RDF>
 </metadata>
 <defs>
  <style type="text/css">*{stroke-linejoin: round; stroke-linecap: butt}</style>
 </defs>
 <g id="figure_1">
  <g id="patch_1">
   <path d="M 0 568.637812 
L 1066.329375 568.637812 
L 1066.329375 0 
L 0 0 
z
" style="fill: #ffffff"/>
  </g>
  <g id="axes_1">
   <g id="patch_2">
    <path d="M 283.255776 304.686818 
Q 360.601777 409.000199 436.282999 511.068359 
" clip-path="url(#p5ffa012e39)" style="fill: none; stroke: #4682b4; stroke-width: 2.5; stroke-linecap: round"/>
    <path d="M 433.179439 493.451097 
L 436.282999 511.068359 
L 420.327053 502.98085 
z
" clip-path="url(#p5ffa012e39)" style="fill: #4682b4; stroke: #4682b4; stroke-width: 2.5; stroke-linecap: round"/>
   </g>
   <g id="patch_3">
    <path d="M 461.884392 525.365085 
Q 533.166353 525.365085 601.653229 525.365085 
" clip-path="url(#p5ffa012e39)" style="fill: none; stroke: #4682b4; stroke-width: 2.5; stroke-linecap: round"/>
    <path d="M 585.653229 517.365085 
L 601.653229 525.365085 
L 585.653229 533.365085 
z
" clip-path="url(#p5ffa012e39)" style="fill: #4682b4; stroke: #4682b4; stroke-width: 2.5; stroke-linecap: round"/>
   </g>
   <g id="patch_4">
    <path d="M 628.379743 513.31608 
Q 705.725744 409.002699 781.406965 306.934538 
" clip-path="url(#p5ffa012e39)" style="fill: none; stroke: #4682b4; stroke-width: 2.5; stroke-linecap: round"/>
    <path d="M 765.45102 315.022048 
L 781.406965 306.934538 
L 778.303406 324.5518 
z
" clip-path="url(#p5ffa012e39)" style="fill: #4682b4; stroke: #4682b4; stroke-width: 2.5; stroke-linecap: round"/>
   </g>
   <g id="patch_5">
    <path d="M 283.255776 280.588807 
Q 360.601777 176.275426 436.282999 74.207266 
" clip-path="url(#p5ffa012e39)" style="fill: none; stroke: #dc143c; stroke-width: 2.5; stroke-linecap: round"/>
    <path d="M 420.327053 82.294775 
L 436.282999 74.207266 
L 433.179439 91.824528 
z
" clip-path="url(#p5ffa012e39)" style="fill: #dc143c; stroke: #dc143c; stroke-width: 2.5; stroke-linecap: round"/>
   </g>
   <g id="patch_6">
    <path d="M 461.884392 59.91054 
Q 533.166353 59.91054 601.653229 59.91054 
" clip-path="url(#p5ffa012e39)" style="fill: none; stroke: #dc143c; stroke-width: 2.5; stroke-linecap: round"/>
    <path d="M 585.653229 51.91054 
L 601.653229 59.91054 
L 585.653229 67.91054 
z
" clip-path="url(#p5ffa012e39)" style="fill: #dc143c; stroke: #dc143c; stroke-width: 2.5; stroke-linecap: round"/>
   </g>
   <g id="patch_7">
    <path d="M 628.379743 71.959545 
Q 705.725744 176.272926 781.406965 278.341087 
" clip-path="url(#p5ffa012e39)" style="fill: none; stroke: #dc143c; stroke-width: 2.5; stroke-linecap: round"/>
    <path d="M 778.303406 260.723825 
L 781.406965 278.341087 
L 765.45102 270.253577 
z
" clip-path="url(#p5ffa012e39)" style="fill: #dc143c; stroke: #dc143c; stroke-width: 2.5; stroke-linecap: round"/>
   </g>
   <g id="text_1">
    <g id="patch_8">
     <path d="M 363.480003 186.871235 
L 371.579547 175.947712 
L 357.726332 165.675867 
L 349.626787 176.599391 
z
" clip-path="url(#p5ffa012e39)" style="fill: #ffffff; stroke: #4682b4; stroke-width: 1.5; stroke-linejoin: miter"/>
    </g>
    <g clip-path="url(#p5ffa012e39)">
     <!-- 5 -->
     <g transform="translate(360.957094 180.89237) rotate(-53.443905) scale(0.11 -0.11)">
      <defs>
       <path id="DejaVuSans-35" d="M 691 4666 
L 3169 4666 
L 3169 4134 
L 1269 4134 
L 1269 2991 
Q 1406 3038 1543 3061 
Q 1681 3084 1819 3084 
Q 2600 3084 3056 2656 
Q 3513 2228 3513 1497 
Q 3513 744 3044 326 
Q 2575 -91 1722 -91 
Q 1428 -91 1123 -41 
Q 819 9 494 109 
L 494 744 
Q 775 591 1075 516 
Q 1375 441 1709 441 
Q 2250 441 2565 725 
Q 2881 1009 2881 1497 
Q 2881 1984 2565 2268 
Q 2250 2553 1709 2553 
Q 1456 2553 1204 2497 
Q 953 2441 691 2322 
L 691 4666 
z
" transform="scale(0.015625)"/>
      </defs>
      <use xlink:href="#DejaVuSans-35"/>
     </g>
    </g>
   </g>
   <g id="text_2">
    <g id="patch_9">
     <path d="M 349.626787 408.676234 
L 357.726332 419.599758 
L 371.579547 409.327913 
L 363.480003 398.40439 
z
" clip-path="url(#p5ffa012e39)" style="fill: #ffffff; stroke: #4682b4; stroke-width: 1.5; stroke-linejoin: miter"/>
    </g>
    <g clip-path="url(#p5ffa012e39)">
     <!-- 3 -->
     <g transform="translate(356.080718 407.998977) rotate(-306.556095) scale(0.11 -0.11)">
      <defs>
       <path id="DejaVuSans-33" d="M 2597 2516 
Q 3050 2419 3304 2112 
Q 3559 1806 3559 1356 
Q 3559 666 3084 287 
Q 2609 -91 1734 -91 
Q 1441 -91 1130 -33 
Q 819 25 488 141 
L 488 750 
Q 750 597 1062 519 
Q 1375 441 1716 441 
Q 2309 441 2620 675 
Q 2931 909 2931 1356 
Q 2931 1769 2642 2001 
Q 2353 2234 1838 2234 
L 1294 2234 
L 1294 2753 
L 1863 2753 
Q 2328 2753 2575 2939 
Q 2822 3125 2822 3475 
Q 2822 3834 2567 4026 
Q 2313 4219 1838 4219 
Q 1578 4219 1281 4162 
Q 984 4106 628 3988 
L 628 4550 
Q 988 4650 1302 4700 
Q 1616 4750 1894 4750 
Q 2613 4750 3031 4423 
Q 3450 4097 3450 3541 
Q 3450 3153 3228 2886 
Q 3006 2619 2597 2516 
z
" transform="scale(0.015625)"/>
      </defs>
      <use xlink:href="#DejaVuSans-33"/>
     </g>
    </g>
   </g>
   <g id="text_3">
    <g id="patch_10">
     <path d="M 526.365042 68.533509 
L 539.963792 68.533509 
L 539.963792 51.287571 
L 526.365042 51.287571 
z
" clip-path="url(#p5ffa012e39)" style="fill: #ffffff; stroke: #4682b4; stroke-width: 1.5; stroke-linejoin: miter"/>
    </g>
    <g clip-path="url(#p5ffa012e39)">
     <!-- 6 -->
     <g transform="translate(529.665042 62.945852) scale(0.11 -0.11)">
      <defs>
       <path id="DejaVuSans-36" d="M 2113 2584 
Q 1688 2584 1439 2293 
Q 1191 2003 1191 1497 
Q 1191 994 1439 701 
Q 1688 409 2113 409 
Q 2538 409 2786 701 
Q 3034 994 3034 1497 
Q 3034 2003 2786 2293 
Q 2538 2584 2113 2584 
z
M 3366 4563 
L 3366 3988 
Q 3128 4100 2886 4159 
Q 2644 4219 2406 4219 
Q 1781 4219 1451 3797 
Q 1122 3375 1075 2522 
Q 1259 2794 1537 2939 
Q 1816 3084 2150 3084 
Q 2853 3084 3261 2657 
Q 3669 2231 3669 1497 
Q 3669 778 3244 343 
Q 2819 -91 2113 -91 
Q 1303 -91 875 529 
Q 447 1150 447 2328 
Q 447 3434 972 4092 
Q 1497 4750 2381 4750 
Q 2619 4750 2861 4703 
Q 3103 4656 3366 4563 
z
" transform="scale(0.015625)"/>
      </defs>
      <use xlink:href="#DejaVuSans-36"/>
     </g>
    </g>
   </g>
   <g id="text_4">
    <g id="patch_11">
     <path d="M 526.365042 533.988054 
L 539.963792 533.988054 
L 539.963792 516.742116 
L 526.365042 516.742116 
z
" clip-path="url(#p5ffa012e39)" style="fill: #ffffff; stroke: #4682b4; stroke-width: 1.5; stroke-linejoin: miter"/>
    </g>
    <g clip-path="url(#p5ffa012e39)">
     <!-- 4 -->
     <g transform="translate(529.665042 528.400398) scale(0.11 -0.11)">
      <defs>
       <path id="DejaVuSans-34" d="M 2419 4116 
L 825 1625 
L 2419 1625 
L 2419 4116 
z
M 2253 4666 
L 3047 4666 
L 3047 1625 
L 3713 1625 
L 3713 1100 
L 3047 1100 
L 3047 0 
L 2419 0 
L 2419 1100 
L 313 1100 
L 313 1709 
L 2253 4666 
z
" transform="scale(0.015625)"/>
      </defs>
      <use xlink:href="#DejaVuSans-34"/>
     </g>
    </g>
   </g>
   <g id="text_5">
    <g id="patch_12">
     <path d="M 694.750754 175.948961 
L 702.850299 186.872485 
L 716.703514 176.600641 
L 708.60397 165.677117 
z
" clip-path="url(#p5ffa012e39)" style="fill: #ffffff; stroke: #4682b4; stroke-width: 1.5; stroke-linejoin: miter"/>
    </g>
    <g clip-path="url(#p5ffa012e39)">
     <!-- 5 -->
     <g transform="translate(701.204685 175.271705) rotate(-306.556095) scale(0.11 -0.11)">
      <use xlink:href="#DejaVuSans-35"/>
     </g>
    </g>
   </g>
   <g id="text_6">
    <g id="patch_13">
     <path d="M 708.60397 419.598508 
L 716.703514 408.674984 
L 702.850299 398.40314 
L 694.750754 409.326664 
z
" clip-path="url(#p5ffa012e39)" style="fill: #ffffff; stroke: #4682b4; stroke-width: 1.5; stroke-linejoin: miter"/>
    </g>
    <g clip-path="url(#p5ffa012e39)">
     <!-- 5 -->
     <g transform="translate(706.081061 413.619642) rotate(-53.443905) scale(0.11 -0.11)">
      <use xlink:href="#DejaVuSans-35"/>
     </g>
    </g>
   </g>
   <g id="PathCollection_1">
    <defs>
     <path id="m6affc74e40" d="M 0 17.320508 
C 4.593452 17.320508 8.999387 15.49551 12.247449 12.247449 
C 15.49551 8.999387 17.320508 4.593452 17.320508 0 
C 17.320508 -4.593452 15.49551 -8.999387 12.247449 -12.247449 
C 8.999387 -15.49551 4.593452 -17.320508 0 -17.320508 
C -4.593452 -17.320508 -8.999387 -15.49551 -12.247449 -12.247449 
C -15.49551 -8.999387 -17.320508 -4.593452 -17.320508 0 
C -17.320508 4.593452 -15.49551 8.999387 -12.247449 12.247449 
C -8.999387 15.49551 -4.593452 17.320508 0 17.320508 
z
" style="stroke: #4682b4; stroke-width: 2"/>
    </defs>
    <g clip-path="url(#p5ffa012e39)">
     <use xlink:href="#m6affc74e40" x="446.883696" y="59.91054" style="fill: #add8e6; stroke: #4682b4; stroke-width: 2"/>
     <use xlink:href="#m6affc74e40" x="446.883696" y="525.365085" style="fill: #add8e6; stroke: #4682b4; stroke-width: 2"/>
     <use xlink:href="#m6affc74e40" x="619.445679" y="59.91054" style="fill: #add8e6; stroke: #4682b4; stroke-width: 2"/>
     <use xlink:href="#m6affc74e40" x="619.445679" y="525.365085" style="fill: #add8e6; stroke: #4682b4; stroke-width: 2"/>
    </g>
   </g>
   <g id="PathCollection_2">
    <defs>
     <path id="mfb48b23b5b" d="M 0 17.320508 
C 4.593452 17.320508 8.999387 15.49551 12.247449 12.247449 
C 15.49551 8.999387 17.320508 4.593452 17.320508 0 
C 17.320508 -4.593452 15.49551 -8.999387 12.247449 -12.247449 
C 8.999387 -15.49551 4.593452 -17.320508 0 -17.320508 
C -4.593452 -17.320508 -8.999387 -15.49551 -12.247449 -12.247449 
C -15.49551 -8.999387 -17.320508 -4.593452 -17.320508 0 
C -17.320508 4.593452 -15.49551 8.999387 -12.247449 12.247449 
C -8.999387 15.49551 -4.593452 17.320508 0 17.320508 
z
" style="stroke: #006400; stroke-width: 3"/>
    </defs>
    <g clip-path="url(#p5ffa012e39)">
     <use xlink:href="#mfb48b23b5b" x="274.321712" y="292.637812" style="fill: #98fb98; stroke: #006400; stroke-width: 3"/>
    </g>
   </g>
   <g id="PathCollection_3">
    <defs>
     <path id="mcaa1a79982" d="M 0 17.320508 
C 4.593452 17.320508 8.999387 15.49551 12.247449 12.247449 
C 15.49551 8.999387 17.320508 4.593452 17.320508 0 
C 17.320508 -4.593452 15.49551 -8.999387 12.247449 -12.247449 
C 8.999387 -15.49551 4.593452 -17.320508 0 -17.320508 
C -4.593452 -17.320508 -8.999387 -15.49551 -12.247449 -12.247449 
C -15.49551 -8.999387 -17.320508 -4.593452 -17.320508 0 
C -17.320508 4.593452 -15.49551 8.999387 -12.247449 12.247449 
C -8.999387 15.49551 -4.593452 17.320508 0 17.320508 
z
" style="stroke: #ff8c00; stroke-width: 3"/>
    </defs>
    <g clip-path="url(#p5ffa012e39)">
     <use xlink:href="#mcaa1a79982" x="792.007663" y="292.637812" style="fill: #ffe4b5; stroke: #ff8c00; stroke-width: 3"/>
    </g>
   </g>
   <g id="text_7">
    <g clip-path="url(#p5ffa012e39)">
     <!-- A -->
     <g style="fill: #00008b" transform="translate(269.533275 296.500938) scale(0.14 -0.14)">
      <defs>
       <path id="DejaVuSans-41" d="M 2188 4044 
L 1331 1722 
L 3047 1722 
L 2188 4044 
z
M 1831 4666 
L 2547 4666 
L 4325 0 
L 3669 0 
L 3244 1197 
L 1141 1197 
L 716 0 
L 50 0 
L 1831 4666 
z
" transform="scale(0.015625)"/>
      </defs>
      <use xlink:href="#DejaVuSans-41"/>
     </g>
    </g>
   </g>
   <g id="text_8">
    <g clip-path="url(#p5ffa012e39)">
     <!-- B -->
     <g style="fill: #00008b" transform="translate(442.08104 63.773665) scale(0.14 -0.14)">
      <defs>
       <path id="DejaVuSans-42" d="M 1259 2228 
L 1259 519 
L 2272 519 
Q 2781 519 3026 730 
Q 3272 941 3272 1375 
Q 3272 1813 3026 2020 
Q 2781 2228 2272 2228 
L 1259 2228 
z
M 1259 4147 
L 1259 2741 
L 2194 2741 
Q 2656 2741 2882 2914 
Q 3109 3088 3109 3444 
Q 3109 3797 2882 3972 
Q 2656 4147 2194 4147 
L 1259 4147 
z
M 628 4666 
L 2241 4666 
Q 2963 4666 3353 4366 
Q 3744 4066 3744 3513 
Q 3744 3084 3544 2831 
Q 3344 2578 2956 2516 
Q 3422 2416 3680 2098 
Q 3938 1781 3938 1306 
Q 3938 681 3513 340 
Q 3088 0 2303 0 
L 628 0 
L 628 4666 
z
" transform="scale(0.015625)"/>
      </defs>
      <use xlink:href="#DejaVuSans-42"/>
     </g>
    </g>
   </g>
   <g id="text_9">
    <g clip-path="url(#p5ffa012e39)">
     <!-- C -->
     <g style="fill: #00008b" transform="translate(441.995727 529.22821) scale(0.14 -0.14)">
      <defs>
       <path id="DejaVuSans-43" d="M 4122 4306 
L 4122 3641 
Q 3803 3938 3442 4084 
Q 3081 4231 2675 4231 
Q 1875 4231 1450 3742 
Q 1025 3253 1025 2328 
Q 1025 1406 1450 917 
Q 1875 428 2675 428 
Q 3081 428 3442 575 
Q 3803 722 4122 1019 
L 4122 359 
Q 3791 134 3420 21 
Q 3050 -91 2638 -91 
Q 1578 -91 968 557 
Q 359 1206 359 2328 
Q 359 3453 968 4101 
Q 1578 4750 2638 4750 
Q 3056 4750 3426 4639 
Q 3797 4528 4122 4306 
z
" transform="scale(0.015625)"/>
      </defs>
      <use xlink:href="#DejaVuSans-43"/>
     </g>
    </g>
   </g>
   <g id="text_10">
    <g clip-path="url(#p5ffa012e39)">
     <!-- D -->
     <g style="fill: #00008b" transform="translate(614.055679 63.773665) scale(0.14 -0.14)">
      <defs>
       <path id="DejaVuSans-44" d="M 1259 4147 
L 1259 519 
L 2022 519 
Q 2988 519 3436 956 
Q 3884 1394 3884 2338 
Q 3884 3275 3436 3711 
Q 2988 4147 2022 4147 
L 1259 4147 
z
M 628 4666 
L 1925 4666 
Q 3281 4666 3915 4102 
Q 4550 3538 4550 2338 
Q 4550 1131 3912 565 
Q 3275 0 1925 0 
L 628 0 
L 628 4666 
z
" transform="scale(0.015625)"/>
      </defs>
      <use xlink:href="#DejaVuSans-44"/>
     </g>
    </g>
   </g>
   <g id="text_11">
    <g clip-path="url(#p5ffa012e39)">
     <!-- E -->
     <g style="fill: #00008b" transform="translate(615.022554 529.22821) scale(0.14 -0.14)">
      <defs>
       <path id="DejaVuSans-45" d="M 628 4666 
L 3578 4666 
L 3578 4134 
L 1259 4134 
L 1259 2753 
L 3481 2753 
L 3481 2222 
L 1259 2222 
L 1259 531 
L 3634 531 
L 3634 0 
L 628 0 
L 628 4666 
z
" transform="scale(0.015625)"/>
      </defs>
      <use xlink:href="#DejaVuSans-45"/>
     </g>
    </g>
   </g>
   <g id="text_12">
    <g clip-path="url(#p5ffa012e39)">
     <!-- F -->
     <g style="fill: #00008b" transform="translate(787.981569 296.500938) scale(0.14 -0.14)">
      <defs>
       <path id="DejaVuSans-46" d="M 628 4666 
L 3309 4666 
L 3309 4134 
L 1259 4134 
L 1259 2759 
L 3109 2759 
L 3109 2228 
L 1259 2228 
L 1259 0 
L 628 0 
L 628 4666 
z
" transform="scale(0.015625)"/>
      </defs>
      <use xlink:href="#DejaVuSans-46"/>
     </g>
    </g>
   </g>
   <g id="text_13">
    <!-- Граф по варианту 17 (ориентированный). Начало (A) — зелёная рамка, окончание (F) — оранжевая. Критический путь A→B→D→F — красный. -->
    <g transform="translate(7.2 17.837812) scale(0.14 -0.14)">
     <defs>
      <path id="DejaVuSans-413" d="M 628 0 
L 628 4666 
L 3531 4666 
L 3531 4134 
L 1259 4134 
L 1259 0 
L 628 0 
z
" transform="scale(0.015625)"/>
      <path id="DejaVuSans-440" d="M 1159 525 
L 1159 -1331 
L 581 -1331 
L 581 3500 
L 1159 3500 
L 1159 2969 
Q 1341 3281 1617 3432 
Q 1894 3584 2278 3584 
Q 2916 3584 3314 3078 
Q 3713 2572 3713 1747 
Q 3713 922 3314 415 
Q 2916 -91 2278 -91 
Q 1894 -91 1617 61 
Q 1341 213 1159 525 
z
M 3116 1747 
Q 3116 2381 2855 2742 
Q 2594 3103 2138 3103 
Q 1681 3103 1420 2742 
Q 1159 2381 1159 1747 
Q 1159 1113 1420 752 
Q 1681 391 2138 391 
Q 2594 391 2855 752 
Q 3116 1113 3116 1747 
z
" transform="scale(0.015625)"/>
      <path id="DejaVuSans-430" d="M 2194 1759 
Q 1497 1759 1228 1600 
Q 959 1441 959 1056 
Q 959 750 1161 570 
Q 1363 391 1709 391 
Q 2188 391 2477 730 
Q 2766 1069 2766 1631 
L 2766 1759 
L 2194 1759 
z
M 3341 1997 
L 3341 0 
L 2766 0 
L 2766 531 
Q 2569 213 2275 61 
Q 1981 -91 1556 -91 
Q 1019 -91 701 211 
Q 384 513 384 1019 
Q 384 1609 779 1909 
Q 1175 2209 1959 2209 
L 2766 2209 
L 2766 2266 
Q 2766 2663 2505 2880 
Q 2244 3097 1772 3097 
Q 1472 3097 1187 3025 
Q 903 2953 641 2809 
L 641 3341 
Q 956 3463 1253 3523 
Q 1550 3584 1831 3584 
Q 2591 3584 2966 3190 
Q 3341 2797 3341 1997 
z
" transform="scale(0.015625)"/>
      <path id="DejaVuSans-444" d="M 947 1747 
Q 947 1013 1173 702 
Q 1400 391 1784 391 
Q 2091 391 2447 916 
L 2447 2578 
Q 2091 3103 1784 3103 
Q 1400 3103 1173 2792 
Q 947 2481 947 1747 
z
M 2447 -1331 
L 2447 447 
Q 2269 153 2064 31 
Q 1859 -91 1600 -91 
Q 1078 -91 714 392 
Q 350 875 350 1734 
Q 350 2594 714 3089 
Q 1078 3584 1600 3584 
Q 1859 3584 2064 3465 
Q 2269 3347 2447 3053 
L 2447 4666 
L 3025 4666 
L 3025 3053 
Q 3203 3347 3408 3465 
Q 3613 3584 3872 3584 
Q 4394 3584 4758 3089 
Q 5122 2594 5122 1734 
Q 5122 875 4758 392 
Q 4394 -91 3872 -91 
Q 3613 -91 3408 31 
Q 3203 153 3025 447 
L 3025 -1331 
L 2447 -1331 
z
M 4525 1747 
Q 4525 2481 4298 2792 
Q 4072 3103 3688 3103 
Q 3381 3103 3025 2578 
L 3025 916 
Q 3381 391 3688 391 
Q 4072 391 4298 702 
Q 4525 1013 4525 1747 
z
" transform="scale(0.015625)"/>
      <path id="DejaVuSans-20" transform="scale(0.015625)"/>
      <path id="DejaVuSans-43f" d="M 3603 3500 
L 3603 0 
L 3025 0 
L 3025 3041 
L 1159 3041 
L 1159 0 
L 581 0 
L 581 3500 
L 3603 3500 
z
" transform="scale(0.015625)"/>
      <path id="DejaVuSans-43e" d="M 1959 3097 
Q 1497 3097 1228 2736 
Q 959 2375 959 1747 
Q 959 1119 1226 758 
Q 1494 397 1959 397 
Q 2419 397 2687 759 
Q 2956 1122 2956 1747 
Q 2956 2369 2687 2733 
Q 2419 3097 1959 3097 
z
M 1959 3584 
Q 2709 3584 3137 3096 
Q 3566 2609 3566 1747 
Q 3566 888 3137 398 
Q 2709 -91 1959 -91 
Q 1206 -91 779 398 
Q 353 888 353 1747 
Q 353 2609 779 3096 
Q 1206 3584 1959 3584 
z
" transform="scale(0.015625)"/>
      <path id="DejaVuSans-432" d="M 1156 1613 
L 1156 459 
L 1975 459 
Q 2369 459 2575 607 
Q 2781 756 2781 1038 
Q 2781 1319 2575 1466 
Q 2369 1613 1975 1613 
L 1156 1613 
z
M 1156 3041 
L 1156 2072 
L 1913 2072 
Q 2238 2072 2444 2201 
Q 2650 2331 2650 2563 
Q 2650 2794 2444 2917 
Q 2238 3041 1913 3041 
L 1156 3041 
z
M 581 3500 
L 1950 3500 
Q 2566 3500 2897 3275 
Q 3228 3050 3228 2634 
Q 3228 2313 3059 2123 
Q 2891 1934 2559 1888 
Q 2956 1813 3175 1575 
Q 3394 1338 3394 981 
Q 3394 513 3033 256 
Q 2672 0 2003 0 
L 581 0 
L 581 3500 
z
" transform="scale(0.015625)"/>
      <path id="DejaVuSans-438" d="M 3578 3500 
L 3578 0 
L 3006 0 
L 3006 2809 
L 1319 0 
L 581 0 
L 581 3500 
L 1153 3500 
L 1153 697 
L 2838 3500 
L 3578 3500 
z
" transform="scale(0.015625)"/>
      <path id="DejaVuSans-43d" d="M 581 3500 
L 1159 3500 
L 1159 2072 
L 3025 2072 
L 3025 3500 
L 3603 3500 
L 3603 0 
L 3025 0 
L 3025 1613 
L 1159 1613 
L 1159 0 
L 581 0 
L 581 3500 
z
" transform="scale(0.015625)"/>
      <path id="DejaVuSans-442" d="M 188 3500 
L 3541 3500 
L 3541 3041 
L 2147 3041 
L 2147 0 
L 1581 0 
L 1581 3041 
L 188 3041 
L 188 3500 
z
" transform="scale(0.015625)"/>
      <path id="DejaVuSans-443" d="M 2059 -325 
Q 1816 -950 1584 -1140 
Q 1353 -1331 966 -1331 
L 506 -1331 
L 506 -850 
L 844 -850 
Q 1081 -850 1212 -737 
Q 1344 -625 1503 -206 
L 1606 56 
L 191 3500 
L 800 3500 
L 1894 763 
L 2988 3500 
L 3597 3500 
L 2059 -325 
z
" transform="scale(0.015625)"/>
      <path id="DejaVuSans-31" d="M 794 531 
L 1825 531 
L 1825 4091 
L 703 3866 
L 703 4441 
L 1819 4666 
L 2450 4666 
L 2450 531 
L 3481 531 
L 3481 0 
L 794 0 
L 794 531 
z
" transform="scale(0.015625)"/>
      <path id="DejaVuSans-37" d="M 525 4666 
L 3525 4666 
L 3525 4397 
L 1831 0 
L 1172 0 
L 2766 4134 
L 525 4134 
L 525 4666 
z
" transform="scale(0.015625)"/>
      <path id="DejaVuSans-28" d="M 1984 4856 
Q 1566 4138 1362 3434 
Q 1159 2731 1159 2009 
Q 1159 1288 1364 580 
Q 1569 -128 1984 -844 
L 1484 -844 
Q 1016 -109 783 600 
Q 550 1309 550 2009 
Q 550 2706 781 3412 
Q 1013 4119 1484 4856 
L 1984 4856 
z
" transform="scale(0.015625)"/>
      <path id="DejaVuSans-435" d="M 3597 1894 
L 3597 1613 
L 953 1613 
Q 991 1019 1311 708 
Q 1631 397 2203 397 
Q 2534 397 2845 478 
Q 3156 559 3463 722 
L 3463 178 
Q 3153 47 2828 -22 
Q 2503 -91 2169 -91 
Q 1331 -91 842 396 
Q 353 884 353 1716 
Q 353 2575 817 3079 
Q 1281 3584 2069 3584 
Q 2775 3584 3186 3129 
Q 3597 2675 3597 1894 
z
M 3022 2063 
Q 3016 2534 2758 2815 
Q 2500 3097 2075 3097 
Q 1594 3097 1305 2825 
Q 1016 2553 972 2059 
L 3022 2063 
z
" transform="scale(0.015625)"/>
      <path id="DejaVuSans-44b" d="M 3907 3500 
L 4482 3500 
L 4482 0 
L 3907 0 
L 3907 3500 
z
M 4195 3584 
L 4195 3584 
z
M 2781 1038 
Q 2781 1319 2576 1466 
Q 2372 1613 1978 1613 
L 1159 1613 
L 1159 459 
L 1978 459 
Q 2372 459 2576 607 
Q 2781 756 2781 1038 
z
M 581 3500 
L 1159 3500 
L 1159 2072 
L 2003 2072 
Q 2672 2072 3033 1817 
Q 3394 1563 3394 1038 
Q 3394 513 3033 256 
Q 2672 0 2003 0 
L 581 0 
L 581 3500 
z
" transform="scale(0.015625)"/>
      <path id="DejaVuSans-439" d="M 3578 3500 
L 3578 0 
L 3006 0 
L 3006 2809 
L 1319 0 
L 581 0 
L 581 3500 
L 1153 3500 
L 1153 697 
L 2838 3500 
L 3578 3500 
z
M 1102 4833 
L 1471 4833 
Q 1505 4599 1656 4481 
Q 1808 4364 2080 4364 
Q 2349 4364 2499 4480 
Q 2649 4596 2689 4833 
L 3058 4833 
Q 3027 4386 2780 4161 
Q 2533 3936 2080 3936 
Q 1627 3936 1380 4161 
Q 1133 4386 1102 4833 
z
" transform="scale(0.015625)"/>
      <path id="DejaVuSans-29" d="M 513 4856 
L 1013 4856 
Q 1481 4119 1714 3412 
Q 1947 2706 1947 2009 
Q 1947 1309 1714 600 
Q 1481 -109 1013 -844 
L 513 -844 
Q 928 -128 1133 580 
Q 1338 1288 1338 2009 
Q 1338 2731 1133 3434 
Q 928 4138 513 4856 
z
" transform="scale(0.015625)"/>
      <path id="DejaVuSans-2e" d="M 684 794 
L 1344 794 
L 1344 0 
L 684 0 
L 684 794 
z
" transform="scale(0.015625)"/>
      <path id="DejaVuSans-41d" d="M 628 4666 
L 1259 4666 
L 1259 2753 
L 3553 2753 
L 3553 4666 
L 4184 4666 
L 4184 0 
L 3553 0 
L 3553 2222 
L 1259 2222 
L 1259 0 
L 628 0 
L 628 4666 
z
" transform="scale(0.015625)"/>
      <path id="DejaVuSans-447" d="M 2625 0 
L 2625 1472 
L 1553 1472 
Q 1075 1472 756 1769 
Q 469 2038 469 2613 
L 469 3500 
L 1044 3500 
L 1044 2666 
Q 1044 2300 1206 2116 
Q 1372 1931 1697 1931 
L 2625 1931 
L 2625 3500 
L 3200 3500 
L 3200 0 
L 2625 0 
z
" transform="scale(0.015625)"/>
      <path id="DejaVuSans-43b" d="M 238 0 
L 238 478 
Q 806 566 981 959 
Q 1194 1513 1194 2928 
L 1194 3500 
L 3559 3500 
L 3559 0 
L 2984 0 
L 2984 3041 
L 1769 3041 
L 1769 2694 
Q 1769 1344 1494 738 
Q 1200 91 238 0 
z
" transform="scale(0.015625)"/>
      <path id="DejaVuSans-2014" d="M 313 1978 
L 6088 1978 
L 6088 1528 
L 313 1528 
L 313 1978 
z
" transform="scale(0.015625)"/>
      <path id="DejaVuSans-437" d="M 2206 1888 
Q 2594 1813 2809 1584 
Q 3025 1356 3025 1019 
Q 3025 478 2622 193 
Q 2219 -91 1475 -91 
Q 1225 -91 961 -47 
Q 697 -3 416 84 
L 416 619 
Q 638 503 903 445 
Q 1169 388 1459 388 
Q 1931 388 2195 563 
Q 2459 738 2459 1019 
Q 2459 1294 2225 1461 
Q 1991 1628 1563 1628 
L 1100 1628 
L 1100 2103 
L 1584 2103 
Q 1947 2103 2158 2242 
Q 2369 2381 2369 2600 
Q 2369 2800 2151 2944 
Q 1934 3088 1563 3088 
Q 1341 3088 1089 3047 
Q 838 3006 534 2916 
L 534 3438 
Q 841 3513 1106 3550 
Q 1372 3588 1609 3588 
Q 2222 3588 2576 3342 
Q 2931 3097 2931 2656 
Q 2931 2366 2743 2164 
Q 2556 1963 2206 1888 
z
" transform="scale(0.015625)"/>
      <path id="DejaVuSans-451" d="M 3597 1894 
L 3597 1613 
L 953 1613 
Q 991 1019 1311 708 
Q 1631 397 2203 397 
Q 2534 397 2845 478 
Q 3156 559 3463 722 
L 3463 178 
Q 3153 47 2828 -22 
Q 2503 -91 2169 -91 
Q 1331 -91 842 396 
Q 353 884 353 1716 
Q 353 2575 817 3079 
Q 1281 3584 2069 3584 
Q 2775 3584 3186 3129 
Q 3597 2675 3597 1894 
z
M 3022 2063 
Q 3016 2534 2758 2815 
Q 2500 3097 2075 3097 
Q 1594 3097 1305 2825 
Q 1016 2553 972 2059 
L 3022 2063 
z
M 2366 4850 
L 3000 4850 
L 3000 4219 
L 2366 4219 
L 2366 4850 
z
M 1144 4850 
L 1778 4850 
L 1778 4219 
L 1144 4219 
L 1144 4850 
z
" transform="scale(0.015625)"/>
      <path id="DejaVuSans-44f" d="M 1181 2491 
Q 1181 2231 1381 2084 
Q 1581 1938 1953 1938 
L 2728 1938 
L 2728 3041 
L 1953 3041 
Q 1581 3041 1381 2897 
Q 1181 2753 1181 2491 
z
M 363 0 
L 1431 1534 
Q 1069 1616 828 1830 
Q 588 2044 588 2491 
Q 588 2997 923 3248 
Q 1259 3500 1938 3500 
L 3306 3500 
L 3306 0 
L 2728 0 
L 2728 1478 
L 2013 1478 
L 981 0 
L 363 0 
z
" transform="scale(0.015625)"/>
      <path id="DejaVuSans-43c" d="M 581 3500 
L 1422 3500 
L 2416 1156 
L 3413 3500 
L 4247 3500 
L 4247 0 
L 3669 0 
L 3669 2950 
L 2703 672 
L 2128 672 
L 1159 2950 
L 1159 0 
L 581 0 
L 581 3500 
z
" transform="scale(0.015625)"/>
      <path id="DejaVuSans-43a" d="M 581 3500 
L 1153 3500 
L 1153 1856 
L 2775 3500 
L 3481 3500 
L 2144 2147 
L 3653 0 
L 3009 0 
L 1769 1766 
L 1153 1141 
L 1153 0 
L 581 0 
L 581 3500 
z
" transform="scale(0.015625)"/>
      <path id="DejaVuSans-2c" d="M 750 794 
L 1409 794 
L 1409 256 
L 897 -744 
L 494 -744 
L 750 256 
L 750 794 
z
" transform="scale(0.015625)"/>
      <path id="DejaVuSans-436" d="M 2597 3500 
L 3169 3500 
L 3169 1856 
L 4697 3500 
L 5366 3500 
L 4109 2153 
L 5547 0 
L 4931 0 
L 3753 1769 
L 3169 1141 
L 3169 0 
L 2597 0 
L 2597 1141 
L 2013 1769 
L 834 0 
L 219 0 
L 1656 2153 
L 400 3500 
L 1069 3500 
L 2597 1856 
L 2597 3500 
z
" transform="scale(0.015625)"/>
      <path id="DejaVuSans-41a" d="M 628 4666 
L 1259 4666 
L 1259 2359 
L 3516 4666 
L 4325 4666 
L 2522 2822 
L 4419 0 
L 3731 0 
L 2113 2403 
L 1259 1531 
L 1259 0 
L 628 0 
L 628 4666 
z
" transform="scale(0.015625)"/>
      <path id="DejaVuSans-441" d="M 3122 3366 
L 3122 2828 
Q 2878 2963 2633 3030 
Q 2388 3097 2138 3097 
Q 1578 3097 1268 2742 
Q 959 2388 959 1747 
Q 959 1106 1268 751 
Q 1578 397 2138 397 
Q 2388 397 2633 464 
Q 2878 531 3122 666 
L 3122 134 
Q 2881 22 2623 -34 
Q 2366 -91 2075 -91 
Q 1284 -91 818 406 
Q 353 903 353 1747 
Q 353 2603 823 3093 
Q 1294 3584 2113 3584 
Q 2378 3584 2631 3529 
Q 2884 3475 3122 3366 
z
" transform="scale(0.015625)"/>
      <path id="DejaVuSans-44c" d="M 2781 1038 
Q 2781 1319 2576 1466 
Q 2372 1613 1978 1613 
L 1159 1613 
L 1159 459 
L 1978 459 
Q 2372 459 2576 607 
Q 2781 756 2781 1038 
z
M 581 3500 
L 1159 3500 
L 1159 2072 
L 2003 2072 
Q 2672 2072 3033 1817 
Q 3394 1563 3394 1038 
Q 3394 513 3033 256 
Q 2672 0 2003 0 
L 581 0 
L 581 3500 
z
" transform="scale(0.015625)"/>
      <path id="DejaVuSans-2192" d="M 5050 2147 
L 5050 1866 
L 3822 638 
L 3447 1013 
L 4175 1741 
L 366 1741 
L 366 2272 
L 4175 2272 
L 3447 3000 
L 3822 3375 
L 5050 2147 
z
" transform="scale(0.015625)"/>
     </defs>
     <use xlink:href="#DejaVuSans-413"/>
     <use xlink:href="#DejaVuSans-440" transform="translate(60.986328 0)"/>
     <use xlink:href="#DejaVuSans-430" transform="translate(124.462891 0)"/>
     <use xlink:href="#DejaVuSans-444" transform="translate(185.742188 0)"/>
     <use xlink:href="#DejaVuSans-20" transform="translate(271.240234 0)"/>
     <use xlink:href="#DejaVuSans-43f" transform="translate(303.027344 0)"/>
     <use xlink:href="#DejaVuSans-43e" transform="translate(368.408203 0)"/>
     <use xlink:href="#DejaVuSans-20" transform="translate(429.589844 0)"/>
     <use xlink:href="#DejaVuSans-432" transform="translate(461.376953 0)"/>
     <use xlink:href="#DejaVuSans-430" transform="translate(520.3125 0)"/>
     <use xlink:href="#DejaVuSans-440" transform="translate(581.591797 0)"/>
     <use xlink:href="#DejaVuSans-438" transform="translate(645.068359 0)"/>
     <use xlink:href="#DejaVuSans-430" transform="translate(710.058594 0)"/>
     <use xlink:href="#DejaVuSans-43d" transform="translate(771.337891 0)"/>
     <use xlink:href="#DejaVuSans-442" transform="translate(836.71875 0)"/>
     <use xlink:href="#DejaVuSans-443" transform="translate(894.970703 0)"/>
     <use xlink:href="#DejaVuSans-20" transform="translate(954.150391 0)"/>
     <use xlink:href="#DejaVuSans-31" transform="translate(985.9375 0)"/>
     <use xlink:href="#DejaVuSans-37" transform="translate(1049.560547 0)"/>
     <use xlink:href="#DejaVuSans-20" transform="translate(1113.183594 0)"/>
     <use xlink:href="#DejaVuSans-28" transform="translate(1144.970703 0)"/>
     <use xlink:href="#DejaVuSans-43e" transform="translate(1183.984375 0)"/>
     <use xlink:href="#DejaVuSans-440" transform="translate(1245.166016 0)"/>
     <use xlink:href="#DejaVuSans-438" transform="translate(1308.642578 0)"/>
     <use xlink:href="#DejaVuSans-435" transform="translate(1373.632812 0)"/>
     <use xlink:href="#DejaVuSans-43d" transform="translate(1435.15625 0)"/>
     <use xlink:href="#DejaVuSans-442" transform="translate(1500.537109 0)"/>
     <use xlink:href="#DejaVuSans-438" transform="translate(1558.789062 0)"/>
     <use xlink:href="#DejaVuSans-440" transform="translate(1623.779297 0)"/>
     <use xlink:href="#DejaVuSans-43e" transform="translate(1687.255859 0)"/>
     <use xlink:href="#DejaVuSans-432" transform="translate(1748.4375 0)"/>
     <use xlink:href="#DejaVuSans-430" transform="translate(1807.373047 0)"/>
     <use xlink:href="#DejaVuSans-43d" transform="translate(1868.652344 0)"/>
     <use xlink:href="#DejaVuSans-43d" transform="translate(1934.033203 0)"/>
     <use xlink:href="#DejaVuSans-44b" transform="translate(1999.414062 0)"/>
     <use xlink:href="#DejaVuSans-439" transform="translate(2078.369141 0)"/>
     <use xlink:href="#DejaVuSans-29" transform="translate(2143.359375 0)"/>
     <use xlink:href="#DejaVuSans-2e" transform="translate(2182.373047 0)"/>
     <use xlink:href="#DejaVuSans-20" transform="translate(2214.160156 0)"/>
     <use xlink:href="#DejaVuSans-41d" transform="translate(2245.947266 0)"/>
     <use xlink:href="#DejaVuSans-430" transform="translate(2321.142578 0)"/>
     <use xlink:href="#DejaVuSans-447" transform="translate(2382.421875 0)"/>
     <use xlink:href="#DejaVuSans-430" transform="translate(2441.503906 0)"/>
     <use xlink:href="#DejaVuSans-43b" transform="translate(2502.783203 0)"/>
     <use xlink:href="#DejaVuSans-43e" transform="translate(2566.699219 0)"/>
     <use xlink:href="#DejaVuSans-20" transform="translate(2627.880859 0)"/>
     <use xlink:href="#DejaVuSans-28" transform="translate(2659.667969 0)"/>
     <use xlink:href="#DejaVuSans-41" transform="translate(2698.681641 0)"/>
     <use xlink:href="#DejaVuSans-29" transform="translate(2767.089844 0)"/>
     <use xlink:href="#DejaVuSans-20" transform="translate(2806.103516 0)"/>
     <use xlink:href="#DejaVuSans-2014" transform="translate(2837.890625 0)"/>
     <use xlink:href="#DejaVuSans-20" transform="translate(2937.890625 0)"/>
     <use xlink:href="#DejaVuSans-437" transform="translate(2969.677734 0)"/>
     <use xlink:href="#DejaVuSans-435" transform="translate(3022.851562 0)"/>
     <use xlink:href="#DejaVuSans-43b" transform="translate(3084.375 0)"/>
     <use xlink:href="#DejaVuSans-451" transform="translate(3148.291016 0)"/>
     <use xlink:href="#DejaVuSans-43d" transform="translate(3209.814453 0)"/>
     <use xlink:href="#DejaVuSans-430" transform="translate(3275.195312 0)"/>
     <use xlink:href="#DejaVuSans-44f" transform="translate(3336.474609 0)"/>
     <use xlink:href="#DejaVuSans-20" transform="translate(3396.630859 0)"/>
     <use xlink:href="#DejaVuSans-440" transform="translate(3428.417969 0)"/>
     <use xlink:href="#DejaVuSans-430" transform="translate(3491.894531 0)"/>
     <use xlink:href="#DejaVuSans-43c" transform="translate(3553.173828 0)"/>
     <use xlink:href="#DejaVuSans-43a" transform="translate(3628.613281 0)"/>
     <use xlink:href="#DejaVuSans-430" transform="translate(3689.013672 0)"/>
     <use xlink:href="#DejaVuSans-2c" transform="translate(3750.292969 0)"/>
     <use xlink:href="#DejaVuSans-20" transform="translate(3782.080078 0)"/>
     <use xlink:href="#DejaVuSans-43e" transform="translate(3813.867188 0)"/>
     <use xlink:href="#DejaVuSans-43a" transform="translate(3875.048828 0)"/>
     <use xlink:href="#DejaVuSans-43e" transform="translate(3935.449219 0)"/>
     <use xlink:href="#DejaVuSans-43d" transform="translate(3996.630859 0)"/>
     <use xlink:href="#DejaVuSans-447" transform="translate(4062.011719 0)"/>
     <use xlink:href="#DejaVuSans-430" transform="translate(4121.09375 0)"/>
     <use xlink:href="#DejaVuSans-43d" transform="translate(4182.373047 0)"/>
     <use xlink:href="#DejaVuSans-438" transform="translate(4247.753906 0)"/>
     <use xlink:href="#DejaVuSans-435" transform="translate(4312.744141 0)"/>
     <use xlink:href="#DejaVuSans-20" transform="translate(4374.267578 0)"/>
     <use xlink:href="#DejaVuSans-28" transform="translate(4406.054688 0)"/>
     <use xlink:href="#DejaVuSans-46" transform="translate(4445.068359 0)"/>
     <use xlink:href="#DejaVuSans-29" transform="translate(4502.587891 0)"/>
     <use xlink:href="#DejaVuSans-20" transform="translate(4541.601562 0)"/>
     <use xlink:href="#DejaVuSans-2014" transform="translate(4573.388672 0)"/>
     <use xlink:href="#DejaVuSans-20" transform="translate(4673.388672 0)"/>
     <use xlink:href="#DejaVuSans-43e" transform="translate(4705.175781 0)"/>
     <use xlink:href="#DejaVuSans-440" transform="translate(4766.357422 0)"/>
     <use xlink:href="#DejaVuSans-430" transform="translate(4829.833984 0)"/>
     <use xlink:href="#DejaVuSans-43d" transform="translate(4891.113281 0)"/>
     <use xlink:href="#DejaVuSans-436" transform="translate(4956.494141 0)"/>
     <use xlink:href="#DejaVuSans-435" transform="translate(5046.582031 0)"/>
     <use xlink:href="#DejaVuSans-432" transform="translate(5108.105469 0)"/>
     <use xlink:href="#DejaVuSans-430" transform="translate(5167.041016 0)"/>
     <use xlink:href="#DejaVuSans-44f" transform="translate(5228.320312 0)"/>
     <use xlink:href="#DejaVuSans-2e" transform="translate(5288.476562 0)"/>
     <use xlink:href="#DejaVuSans-20" transform="translate(5320.263672 0)"/>
     <use xlink:href="#DejaVuSans-41a" transform="translate(5352.050781 0)"/>
     <use xlink:href="#DejaVuSans-440" transform="translate(5423.046875 0)"/>
     <use xlink:href="#DejaVuSans-438" transform="translate(5486.523438 0)"/>
     <use xlink:href="#DejaVuSans-442" transform="translate(5551.513672 0)"/>
     <use xlink:href="#DejaVuSans-438" transform="translate(5609.765625 0)"/>
     <use xlink:href="#DejaVuSans-447" transform="translate(5674.755859 0)"/>
     <use xlink:href="#DejaVuSans-435" transform="translate(5733.837891 0)"/>
     <use xlink:href="#DejaVuSans-441" transform="translate(5795.361328 0)"/>
     <use xlink:href="#DejaVuSans-43a" transform="translate(5850.341797 0)"/>
     <use xlink:href="#DejaVuSans-438" transform="translate(5910.742188 0)"/>
     <use xlink:href="#DejaVuSans-439" transform="translate(5975.732422 0)"/>
     <use xlink:href="#DejaVuSans-20" transform="translate(6040.722656 0)"/>
     <use xlink:href="#DejaVuSans-43f" transform="translate(6072.509766 0)"/>
     <use xlink:href="#DejaVuSans-443" transform="translate(6137.890625 0)"/>
     <use xlink:href="#DejaVuSans-442" transform="translate(6197.070312 0)"/>
     <use xlink:href="#DejaVuSans-44c" transform="translate(6255.322266 0)"/>
     <use xlink:href="#DejaVuSans-20" transform="translate(6314.257812 0)"/>
     <use xlink:href="#DejaVuSans-41" transform="translate(6346.044922 0)"/>
     <use xlink:href="#DejaVuSans-2192" transform="translate(6414.453125 0)"/>
     <use xlink:href="#DejaVuSans-42" transform="translate(6498.242188 0)"/>
     <use xlink:href="#DejaVuSans-2192" transform="translate(6566.845703 0)"/>
     <use xlink:href="#DejaVuSans-44" transform="translate(6650.634766 0)"/>
     <use xlink:href="#DejaVuSans-2192" transform="translate(6727.636719 0)"/>
     <use xlink:href="#DejaVuSans-46" transform="translate(6811.425781 0)"/>
     <use xlink:href="#DejaVuSans-20" transform="translate(6868.945312 0)"/>
     <use xlink:href="#DejaVuSans-2014" transform="translate(6900.732422 0)"/>
     <use xlink:href="#DejaVuSans-20" transform="translate(7000.732422 0)"/>
     <use xlink:href="#DejaVuSans-43a" transform="translate(7032.519531 0)"/>
     <use xlink:href="#DejaVuSans-440" transform="translate(7092.919922 0)"/>
     <use xlink:href="#DejaVuSans-430" transform="translate(7156.396484 0)"/>
     <use xlink:href="#DejaVuSans-441" transform="translate(7217.675781 0)"/>
     <use xlink:href="#DejaVuSans-43d" transform="translate(7272.65625 0)"/>
     <use xlink:href="#DejaVuSans-44b" transform="translate(7338.037109 0)"/>
     <use xlink:href="#DejaVuSans-439" transform="translate(7416.992188 0)"/>
     <use xlink:href="#DejaVuSans-2e" transform="translate(7481.982422 0)"/>
    </g>
   </g>
  </g>
 </g>
 <defs>
  <clipPath id="p5ffa012e39">
   <rect x="219.964688" y="23.837812" width="626.4" height="537.6"/>
  </clipPath>
 </defs>
</svg>
